<svg xmlns="http://www.w3.org/2000/svg" style="display:none">
  <symbol id="icon-home" viewBox="0 0 24 24">
    <path d="M3 10.5 12 3l9 7.5V21a1 1 0 0 1-1 1h-5v-7H9v7H4a1 1 0 0 1-1-1z" fill="currentColor"/>
  </symbol>
  <symbol id="icon-book" viewBox="0 0 24 24">
    <path d="M5 3h11a3 3 0 0 1 3 3v15H8a3 3 0 0 0-3 3V3z" fill="currentColor"/>
    <path d="M8 4v17" stroke="#fff" stroke-width="1.5"/>
  </symbol>
  <symbol id="icon-cart" viewBox="0 0 24 24">
    <path d="M3 4h2l2.2 10.2A2 2 0 0 0 9.2 16h8.8a2 2 0 0 0 1.9-1.4L22 8H7" fill="none" stroke="currentColor" stroke-width="2" stroke-linecap="round" stroke-linejoin="round"/>
    <circle cx="10" cy="20" r="1.8" fill="currentColor"/>
    <circle cx="18" cy="20" r="1.8" fill="currentColor"/>
  </symbol>
  <symbol id="icon-user" viewBox="0 0 24 24">
    <circle cx="12" cy="8" r="4" fill="currentColor"/>
    <path d="M4 21a8 8 0 0 1 16 0" fill="none" stroke="currentColor" stroke-width="2" stroke-linecap="round"/>
  </symbol>
  <symbol id="icon-gift" viewBox="0 0 24 24">
    <rect x="3" y="9" width="18" height="12" rx="2" fill="currentColor"/>
    <path d="M12 9v12M3 13h18" stroke="#fff" stroke-width="1.8"/>
    <path d="M12 9c-2.8 0-5-1.2-5-3a2.5 2.5 0 0 1 5 0M12 9c2.8 0 5-1.2 5-3a2.5 2.5 0 0 0-5 0" fill="none" stroke="currentColor" stroke-width="2"/>
  </symbol>
  <symbol id="icon-facebook" viewBox="0 0 24 24">
    <path d="M14 8h3V4h-3a5 5 0 0 0-5 5v3H6v4h3v4h4v-4h3l1-4h-4V9a1 1 0 0 1 1-1z" fill="currentColor"/>
  </symbol>
  <symbol id="icon-instagram" viewBox="0 0 24 24">
    <rect x="4" y="4" width="16" height="16" rx="5" fill="none" stroke="currentColor" stroke-width="2"/>
    <circle cx="12" cy="12" r="3.5" fill="none" stroke="currentColor" stroke-width="2"/>
    <circle cx="17" cy="7" r="1.1" fill="currentColor"/>
  </symbol>
  <symbol id="icon-youtube" viewBox="0 0 24 24">
    <rect x="3" y="6" width="18" height="12" rx="4" fill="currentColor"/>
    <path d="m10 9 5 3-5 3z" fill="#fff"/>
  </symbol>
</svg>
